<svg xmlns="http://www.w3.org/2000/svg" xmlns:xlink="http://www.w3.org/1999/xlink" xmlns:lucid="lucid" width="770.8" height="490"><g transform="translate(-249.20000000001164 -480)" lucid:page-tab-id="0_0"><path d="M637.2 500c50.8 0 92 100.74 92 225s-41.2 225-92 225h-276c-50.8 0-92-100.74-92-225s41.2-225 92-225z" stroke="#000" stroke-width="2" fill="#fff"/><use xlink:href="#a" transform="matrix(1,0,0,1,274.20000000001164,505) translate(202.52999999999997 14.4)"/><path d="M565.2 540c24.3 0 44 17.9 44 40s-19.7 40-44 40h-132c-24.3 0-44-17.9-44-40s19.7-40 44-40z" stroke="#000" stroke-width="2" fill="#fff"/><use xlink:href="#b" transform="matrix(1,0,0,1,394.20000000001164,545) translate(7.625 38.4625)"/><path d="M648 660c17.67 0 32 17.9 32 40s-14.33 40-32 40h-96c-17.67 0-32-17.9-32-40s14.33-40 32-40z" stroke="#000" stroke-width="2" fill="#fff"/><use xlink:href="#c" transform="matrix(1,0,0,1,525,665) translate(30.549999999999997 38.4625)"/><path d="M499.2 622v18H600v.5" stroke="#000" stroke-width="2" fill="none"/><path d="M500.2 622.03h-2V621h2z"/><path d="M600 655.76l-4.64-14.26h9.28z" stroke="#000" stroke-width="2"/><path d="M448 660c17.67 0 32 17.9 32 40s-14.33 40-32 40h-96c-17.67 0-32-17.9-32-40s14.33-40 32-40z" stroke="#000" stroke-width="2" fill="#fff"/><use xlink:href="#d" transform="matrix(1,0,0,1,325,665) translate(32.6 38.4625)"/><path d="M400 640.5v-.5h99.2v-18" stroke="#000" stroke-width="2" fill="none"/><path d="M400 655.76l-4.64-14.26h9.28z" stroke="#000" stroke-width="2"/><path d="M500.2 622.03h-2V621h2z"/><path d="M448 800c17.67 0 32 17.9 32 40s-14.33 40-32 40h-96c-17.67 0-32-17.9-32-40s14.33-40 32-40z" stroke="#000" stroke-width="2" fill="#fff"/><use xlink:href="#e" transform="matrix(1,0,0,1,325,805) translate(43.074999999999996 38.4625)"/><path d="M400 742v38.5" stroke="#000" stroke-width="2" fill="none"/><path d="M401 742.03h-2V741h2z"/><path d="M400 795.76l-4.64-14.26h9.28z" stroke="#000" stroke-width="2"/><path d="M660 800c22.1 0 40 17.9 40 40s-17.9 40-40 40H540c-22.1 0-40-17.9-40-40s17.9-40 40-40z" stroke="#000" stroke-width="2" fill="#fff"/><use xlink:href="#f" transform="matrix(1,0,0,1,505,805) translate(6.599999999999994 38.4625)"/><path d="M550 720h100v45H550z" stroke="#000" stroke-width="2" fill="#fff"/><use xlink:href="#g" transform="matrix(1,0,0,1,555,725) translate(4.049999999999997 20.9625)"/><path d="M646.23 581H611.2v-2h35.03zm174.27 0h-17.52v-2h17.52z"/><path d="M611.23 581h-1.1l.07-1-.05-1h1.08zM835.76 580l-14.26 4.64v-9.28z"/><path d="M839 580l-18.5 6v-12zm-16.5 3.26l10.03-3.26-10.03-3.26z"/><use xlink:href="#h" transform="matrix(1,0,0,1,646.2255445348133,569.2) translate(0 14.4)"/><use xlink:href="#i" transform="matrix(1,0,0,1,646.2255445348133,569.2) translate(40.95 14.4)"/><path d="M840 560h160v40H840z" stroke="#000" stroke-width="2" fill="#fff"/><use xlink:href="#j" transform="matrix(1,0,0,1,845,565) translate(17.099999999999994 18.15)"/><path d="M702 840h118.5" stroke="#000" stroke-width="2" fill="none"/><path d="M702.03 841h-1.1l.07-1-.03-1h1.06z"/><path d="M835.76 840l-14.26 4.64v-9.28z" stroke="#000" stroke-width="2"/><path d="M840 820h160v40H840z" stroke="#000" stroke-width="2" fill="#fff"/><use xlink:href="#k" transform="matrix(1,0,0,1,845,825) translate(6.4750000000000085 18.15)"/><path d="M920 602v48.5" stroke="#000" stroke-width="2" fill="none"/><path d="M921 602.03h-2V601h2z"/><path d="M920 665.76l-4.64-14.26h9.28z" stroke="#000" stroke-width="2"/><path d="M872 670h96l32 30-32 30h-96l-32-30z" stroke="#000" stroke-width="2" fill="#fff"/><use xlink:href="#l" transform="matrix(1,0,0,1,845,675) translate(33.05499999999999 17.525)"/><use xlink:href="#m" transform="matrix(1,0,0,1,845,675) translate(49.53 39.125)"/><path d="M920 732v68.5" stroke="#000" stroke-width="2" fill="none"/><path d="M921 732.03h-2V731h2z"/><path d="M920 815.76l-4.64-14.26h9.28z" stroke="#000" stroke-width="2"/><defs><path d="M30-248c87 1 191-15 191 75 0 78-77 80-158 76V0H30v-248zm33 125c57 0 124 11 124-50 0-59-68-47-124-48v98" id="n"/><path d="M141-36C126-15 110 5 73 4 37 3 15-17 15-53c-1-64 63-63 125-63 3-35-9-54-41-54-24 1-41 7-42 31l-33-3c5-37 33-52 76-52 45 0 72 20 72 64v82c-1 20 7 32 28 27v20c-31 9-61-2-59-35zM48-53c0 20 12 33 32 33 41-3 63-29 60-74-43 2-92-5-92 41" id="o"/><path d="M206 0h-36l-40-164L89 0H53L-1-190h32L70-26l43-164h34l41 164 42-164h31" id="p"/><path d="M117-194c89-4 53 116 60 194h-32v-121c0-31-8-49-39-48C34-167 62-67 57 0H25l-1-190h30c1 10-1 24 2 32 11-22 29-35 61-36" id="q"/><g id="a"><use transform="matrix(0.05,0,0,0.05,0,0)" xlink:href="#n"/><use transform="matrix(0.05,0,0,0.05,12,0)" xlink:href="#o"/><use transform="matrix(0.05,0,0,0.05,22,0)" xlink:href="#p"/><use transform="matrix(0.05,0,0,0.05,34.95,0)" xlink:href="#q"/></g><path d="M232-93c-1 65-40 97-104 97C67 4 28-28 28-90v-158h33c8 89-33 224 67 224 102 0 64-133 71-224h33v155" id="r"/><path d="M185-189c-5-48-123-54-124 2 14 75 158 14 163 119 3 78-121 87-175 55-17-10-28-26-33-46l33-7c5 56 141 63 141-1 0-78-155-14-162-118-5-82 145-84 179-34 5 7 8 16 11 25" id="s"/><path d="M59-47c-2 24 18 29 38 22v24C64 9 27 4 27-40v-127H5v-23h24l9-43h21v43h35v23H59v120" id="t"/><path d="M24-231v-30h32v30H24zM24 0v-190h32V0H24" id="u"/><path d="M96-169c-40 0-48 33-48 73s9 75 48 75c24 0 41-14 43-38l32 2c-6 37-31 61-74 61-59 0-76-41-82-99-10-93 101-131 147-64 4 7 5 14 7 22l-32 3c-4-21-16-35-41-35" id="v"/><path d="M240 0l2-218c-23 76-54 145-80 218h-23L58-218 59 0H30v-248h44l77 211c21-75 51-140 76-211h43V0h-30" id="w"/><path d="M100-194c63 0 86 42 84 106H49c0 40 14 67 53 68 26 1 43-12 49-29l28 8c-11 28-37 45-77 45C44 4 14-33 15-96c1-61 26-98 85-98zm52 81c6-60-76-77-97-28-3 7-6 17-6 28h103" id="x"/><path d="M135-143c-3-34-86-38-87 0 15 53 115 12 119 90S17 21 10-45l28-5c4 36 97 45 98 0-10-56-113-15-118-90-4-57 82-63 122-42 12 7 21 19 24 35" id="y"/><path d="M106-169C34-169 62-67 57 0H25v-261h32l-1 103c12-21 28-36 61-36 89 0 53 116 60 194h-32v-121c2-32-8-49-39-48" id="z"/><path d="M212-179c-10-28-35-45-73-45-59 0-87 40-87 99 0 60 29 101 89 101 43 0 62-24 78-52l27 14C228-24 195 4 139 4 59 4 22-46 18-125c-6-104 99-153 187-111 19 9 31 26 39 46" id="A"/><path d="M100-194c62-1 85 37 85 99 1 63-27 99-86 99S16-35 15-95c0-66 28-99 85-99zM99-20c44 1 53-31 53-75 0-43-8-75-51-75s-53 32-53 75 10 74 51 75" id="B"/><path d="M210-169c-67 3-38 105-44 169h-31v-121c0-29-5-50-35-48C34-165 62-65 56 0H25l-1-190h30c1 10-1 24 2 32 10-44 99-50 107 0 11-21 27-35 58-36 85-2 47 119 55 194h-31v-121c0-29-5-49-35-48" id="C"/><path d="M115-194c55 1 70 41 70 98S169 2 115 4C84 4 66-9 55-30l1 105H24l-1-265h31l2 30c10-21 28-34 59-34zm-8 174c40 0 45-34 45-75s-6-73-45-74c-42 0-51 32-51 76 0 43 10 73 51 73" id="D"/><g id="b"><use transform="matrix(0.05,0,0,0.05,0,0)" xlink:href="#r"/><use transform="matrix(0.05,0,0,0.05,12.950000000000001,0)" xlink:href="#s"/><use transform="matrix(0.05,0,0,0.05,24.950000000000003,0)" xlink:href="#t"/><use transform="matrix(0.05,0,0,0.05,29.950000000000003,0)" xlink:href="#o"/><use transform="matrix(0.05,0,0,0.05,39.95,0)" xlink:href="#t"/><use transform="matrix(0.05,0,0,0.05,44.95,0)" xlink:href="#u"/><use transform="matrix(0.05,0,0,0.05,48.900000000000006,0)" xlink:href="#v"/><use transform="matrix(0.05,0,0,0.05,57.900000000000006,0)" xlink:href="#w"/><use transform="matrix(0.05,0,0,0.05,72.85000000000001,0)" xlink:href="#x"/><use transform="matrix(0.05,0,0,0.05,82.85000000000001,0)" xlink:href="#y"/><use transform="matrix(0.05,0,0,0.05,91.85000000000001,0)" xlink:href="#z"/><use transform="matrix(0.05,0,0,0.05,101.85000000000001,0)" xlink:href="#A"/><use transform="matrix(0.05,0,0,0.05,114.80000000000001,0)" xlink:href="#B"/><use transform="matrix(0.05,0,0,0.05,124.80000000000001,0)" xlink:href="#C"/><use transform="matrix(0.05,0,0,0.05,139.75,0)" xlink:href="#D"/><use transform="matrix(0.05,0,0,0.05,149.75,0)" xlink:href="#B"/><use transform="matrix(0.05,0,0,0.05,159.75,0)" xlink:href="#q"/><use transform="matrix(0.05,0,0,0.05,169.75,0)" xlink:href="#x"/><use transform="matrix(0.05,0,0,0.05,179.75,0)" xlink:href="#q"/><use transform="matrix(0.05,0,0,0.05,189.75,0)" xlink:href="#t"/></g><g id="c"><use transform="matrix(0.05,0,0,0.05,0,0)" xlink:href="#s"/><use transform="matrix(0.05,0,0,0.05,12,0)" xlink:href="#t"/><use transform="matrix(0.05,0,0,0.05,17,0)" xlink:href="#o"/><use transform="matrix(0.05,0,0,0.05,27,0)" xlink:href="#t"/><use transform="matrix(0.05,0,0,0.05,32,0)" xlink:href="#u"/><use transform="matrix(0.05,0,0,0.05,35.95,0)" xlink:href="#v"/><use transform="matrix(0.05,0,0,0.05,44.95,0)" xlink:href="#w"/><use transform="matrix(0.05,0,0,0.05,59.900000000000006,0)" xlink:href="#x"/><use transform="matrix(0.05,0,0,0.05,69.9,0)" xlink:href="#y"/><use transform="matrix(0.05,0,0,0.05,78.9,0)" xlink:href="#z"/></g><path d="M114-163C36-179 61-72 57 0H25l-1-190h30c1 12-1 29 2 39 6-27 23-49 58-41v29" id="E"/><path d="M177-190C167-65 218 103 67 71c-23-6-38-20-44-43l32-5c15 47 100 32 89-28v-30C133-14 115 1 83 1 29 1 15-40 15-95c0-56 16-97 71-98 29-1 48 16 59 35 1-10 0-23 2-32h30zM94-22c36 0 50-32 50-73 0-42-14-75-50-75-39 0-46 34-46 75s6 73 46 73" id="F"/><path d="M205 0l-28-72H64L36 0H1l101-248h38L239 0h-34zm-38-99l-47-123c-12 45-31 82-46 123h93" id="G"/><g id="d"><use transform="matrix(0.05,0,0,0.05,0,0)" xlink:href="#s"/><use transform="matrix(0.05,0,0,0.05,12,0)" xlink:href="#D"/><use transform="matrix(0.05,0,0,0.05,22,0)" xlink:href="#E"/><use transform="matrix(0.05,0,0,0.05,27.950000000000003,0)" xlink:href="#u"/><use transform="matrix(0.05,0,0,0.05,31.899999999999995,0)" xlink:href="#q"/><use transform="matrix(0.05,0,0,0.05,41.9,0)" xlink:href="#F"/><use transform="matrix(0.05,0,0,0.05,51.900000000000006,0)" xlink:href="#G"/><use transform="matrix(0.05,0,0,0.05,63.900000000000006,0)" xlink:href="#E"/><use transform="matrix(0.05,0,0,0.05,69.85,0)" xlink:href="#C"/></g><g id="e"><use transform="matrix(0.05,0,0,0.05,0,0)" xlink:href="#A"/><use transform="matrix(0.05,0,0,0.05,12.950000000000001,0)" xlink:href="#o"/><use transform="matrix(0.05,0,0,0.05,22.950000000000003,0)" xlink:href="#C"/><use transform="matrix(0.05,0,0,0.05,37.900000000000006,0)" xlink:href="#x"/><use transform="matrix(0.05,0,0,0.05,47.900000000000006,0)" xlink:href="#E"/><use transform="matrix(0.05,0,0,0.05,53.85,0)" xlink:href="#o"/></g><path d="M108 0H70L1-190h34L89-25l56-165h34" id="H"/><g id="f"><use transform="matrix(0.05,0,0,0.05,0,0)" xlink:href="#w"/><use transform="matrix(0.05,0,0,0.05,14.950000000000001,0)" xlink:href="#B"/><use transform="matrix(0.05,0,0,0.05,24.950000000000003,0)" xlink:href="#H"/><use transform="matrix(0.05,0,0,0.05,33.95,0)" xlink:href="#x"/><use transform="matrix(0.05,0,0,0.05,43.95,0)" xlink:href="#C"/><use transform="matrix(0.05,0,0,0.05,58.900000000000006,0)" xlink:href="#x"/><use transform="matrix(0.05,0,0,0.05,68.9,0)" xlink:href="#q"/><use transform="matrix(0.05,0,0,0.05,78.9,0)" xlink:href="#t"/><use transform="matrix(0.05,0,0,0.05,83.9,0)" xlink:href="#A"/><use transform="matrix(0.05,0,0,0.05,96.85000000000001,0)" xlink:href="#B"/><use transform="matrix(0.05,0,0,0.05,106.85000000000001,0)" xlink:href="#C"/><use transform="matrix(0.05,0,0,0.05,121.80000000000001,0)" xlink:href="#D"/><use transform="matrix(0.05,0,0,0.05,131.8,0)" xlink:href="#B"/><use transform="matrix(0.05,0,0,0.05,141.8,0)" xlink:href="#q"/><use transform="matrix(0.05,0,0,0.05,151.8,0)" xlink:href="#x"/><use transform="matrix(0.05,0,0,0.05,161.8,0)" xlink:href="#q"/><use transform="matrix(0.05,0,0,0.05,171.8,0)" xlink:href="#t"/></g><path d="M30-248c118-7 216 8 213 122C240-48 200 0 122 0H30v-248zM63-27c89 8 146-16 146-99s-60-101-146-95v194" id="I"/><g id="g"><use transform="matrix(0.05,0,0,0.05,0,0)" xlink:href="#w"/><use transform="matrix(0.05,0,0,0.05,14.950000000000001,0)" xlink:href="#x"/><use transform="matrix(0.05,0,0,0.05,24.950000000000003,0)" xlink:href="#y"/><use transform="matrix(0.05,0,0,0.05,33.95,0)" xlink:href="#z"/><use transform="matrix(0.05,0,0,0.05,43.95,0)" xlink:href="#I"/><use transform="matrix(0.05,0,0,0.05,56.900000000000006,0)" xlink:href="#o"/><use transform="matrix(0.05,0,0,0.05,66.9,0)" xlink:href="#t"/><use transform="matrix(0.05,0,0,0.05,71.9,0)" xlink:href="#o"/></g><path d="M160-131c35 5 61 23 61 61C221 17 115-2 30 0v-248c76 3 177-17 177 60 0 33-19 50-47 57zm-97-11c50-1 110 9 110-42 0-47-63-36-110-37v79zm0 115c55-2 124 14 124-45 0-56-70-42-124-44v89" id="J"/><path d="M85-194c31 0 48 13 60 33l-1-100h32l1 261h-30c-2-10 0-23-3-31C134-8 116 4 85 4 32 4 16-35 15-94c0-66 23-100 70-100zm9 24c-40 0-46 34-46 75 0 40 6 74 45 74 42 0 51-32 51-76 0-42-9-74-50-73" id="K"/><g id="h"><use transform="matrix(0.05,0,0,0.05,0,0)" xlink:href="#J"/><use transform="matrix(0.05,0,0,0.05,12,0)" xlink:href="#u"/><use transform="matrix(0.05,0,0,0.05,15.949999999999998,0)" xlink:href="#q"/><use transform="matrix(0.05,0,0,0.05,25.950000000000003,0)" xlink:href="#K"/></g><path d="M87 75C49 33 22-17 22-94c0-76 28-126 65-167h31c-38 41-64 92-64 168S80 34 118 75H87" id="L"/><path d="M33-261c38 41 65 92 65 168S71 34 33 75H2C39 34 66-17 66-93S39-220 2-261h31" id="M"/><g id="i"><use transform="matrix(0.05,0,0,0.05,0,0)" xlink:href="#w"/><use transform="matrix(0.05,0,0,0.05,14.950000000000001,0)" xlink:href="#B"/><use transform="matrix(0.05,0,0,0.05,24.950000000000003,0)" xlink:href="#H"/><use transform="matrix(0.05,0,0,0.05,33.95,0)" xlink:href="#x"/><use transform="matrix(0.05,0,0,0.05,43.95,0)" xlink:href="#w"/><use transform="matrix(0.05,0,0,0.05,58.900000000000006,0)" xlink:href="#x"/><use transform="matrix(0.05,0,0,0.05,68.9,0)" xlink:href="#t"/><use transform="matrix(0.05,0,0,0.05,73.9,0)" xlink:href="#z"/><use transform="matrix(0.05,0,0,0.05,83.9,0)" xlink:href="#B"/><use transform="matrix(0.05,0,0,0.05,93.9,0)" xlink:href="#K"/><use transform="matrix(0.05,0,0,0.05,103.9,0)" xlink:href="#L"/><use transform="matrix(0.05,0,0,0.05,109.85000000000001,0)" xlink:href="#M"/></g><g id="j"><use transform="matrix(0.05,0,0,0.05,0,0)" xlink:href="#w"/><use transform="matrix(0.05,0,0,0.05,14.950000000000001,0)" xlink:href="#B"/><use transform="matrix(0.05,0,0,0.05,24.950000000000003,0)" xlink:href="#H"/><use transform="matrix(0.05,0,0,0.05,33.95,0)" xlink:href="#x"/><use transform="matrix(0.05,0,0,0.05,43.95,0)" xlink:href="#w"/><use transform="matrix(0.05,0,0,0.05,58.900000000000006,0)" xlink:href="#x"/><use transform="matrix(0.05,0,0,0.05,68.9,0)" xlink:href="#t"/><use transform="matrix(0.05,0,0,0.05,73.9,0)" xlink:href="#z"/><use transform="matrix(0.05,0,0,0.05,83.9,0)" xlink:href="#B"/><use transform="matrix(0.05,0,0,0.05,93.9,0)" xlink:href="#K"/><use transform="matrix(0.05,0,0,0.05,103.9,0)" xlink:href="#L"/><use transform="matrix(0.05,0,0,0.05,109.85000000000001,0)" xlink:href="#M"/></g><path d="M127-220V0H93v-220H8v-28h204v28h-85" id="N"/><path d="M143 0L79-87 56-68V0H24v-261h32v163l83-92h37l-77 82L181 0h-38" id="O"/><g id="k"><use transform="matrix(0.05,0,0,0.05,0,0)" xlink:href="#N"/><use transform="matrix(0.05,0,0,0.05,10.3,0)" xlink:href="#u"/><use transform="matrix(0.05,0,0,0.05,14.25,0)" xlink:href="#v"/><use transform="matrix(0.05,0,0,0.05,23.25,0)" xlink:href="#O"/><use transform="matrix(0.05,0,0,0.05,32.25,0)" xlink:href="#A"/><use transform="matrix(0.05,0,0,0.05,45.2,0)" xlink:href="#B"/><use transform="matrix(0.05,0,0,0.05,55.2,0)" xlink:href="#C"/><use transform="matrix(0.05,0,0,0.05,70.15,0)" xlink:href="#D"/><use transform="matrix(0.05,0,0,0.05,80.15,0)" xlink:href="#B"/><use transform="matrix(0.05,0,0,0.05,90.15,0)" xlink:href="#q"/><use transform="matrix(0.05,0,0,0.05,100.15,0)" xlink:href="#x"/><use transform="matrix(0.05,0,0,0.05,110.15,0)" xlink:href="#q"/><use transform="matrix(0.05,0,0,0.05,120.15,0)" xlink:href="#t"/><use transform="matrix(0.05,0,0,0.05,125.15,0)" xlink:href="#L"/><use transform="matrix(0.05,0,0,0.05,131.1,0)" xlink:href="#M"/></g><g id="l"><use transform="matrix(0.05,0,0,0.05,0,0)" xlink:href="#w"/><use transform="matrix(0.05,0,0,0.05,14.950000000000001,0)" xlink:href="#B"/><use transform="matrix(0.05,0,0,0.05,24.950000000000003,0)" xlink:href="#H"/><use transform="matrix(0.05,0,0,0.05,33.95,0)" xlink:href="#x"/><use transform="matrix(0.05,0,0,0.05,43.95,0)" xlink:href="#C"/><use transform="matrix(0.05,0,0,0.05,58.900000000000006,0)" xlink:href="#x"/><use transform="matrix(0.05,0,0,0.05,68.9,0)" xlink:href="#q"/><use transform="matrix(0.05,0,0,0.05,78.9,0)" xlink:href="#t"/></g><path d="M137 0h-34L2-248h35l83 218 83-218h36" id="P"/><g id="m"><use transform="matrix(0.05,0,0,0.05,0,0)" xlink:href="#P"/><use transform="matrix(0.05,0,0,0.05,11,0)" xlink:href="#x"/><use transform="matrix(0.05,0,0,0.05,21,0)" xlink:href="#v"/><use transform="matrix(0.05,0,0,0.05,30,0)" xlink:href="#t"/><use transform="matrix(0.05,0,0,0.05,35,0)" xlink:href="#B"/><use transform="matrix(0.05,0,0,0.05,45,0)" xlink:href="#E"/></g></defs></g></svg>